<svg xmlns="http://www.w3.org/2000/svg" width="64" height="64" id="earth">
  <g color="#000" transform="translate(-456.214 -902.148)">
    <circle cx="488.214" cy="934.148" r="31.5" fill="#34485c" stroke="#34485c" stroke-dashoffset="1.5" stroke-linecap="round" stroke-linejoin="round" overflow="visible"></circle>
    <circle cx="488.214" cy="934.148" r="16" fill="#576d7e" overflow="visible"></circle>
    <path fill="#4bbfeb" d="M494.214 920.148c-.554 0-1 .446-1 1s.446 1 1 1h1c.554 0 1 .446 1 1s-.446 1-1 1h-2c-.554 0-1 .446-1 1s.446 1 1 1h8.834a16 16 0 0 0-6.097-6h-1.737zm-18.47 4a16 16 0 0 0-1.37 2h.84c.554 0 1 .446 1 1s-.446 1-1 1h-1.82a16 16 0 0 0-.65 2h12.47c.554 0 1-.446 1-1s-.446-1-1-1h-3c-.554 0-1-.446-1-1s.446-1 1-1h2c.554 0 1-.446 1-1s-.446-1-1-1h-8.47zm-3.479 9a16 16 0 0 0-.05 1 16 16 0 0 0 .036 1h9.077c.554 0 1 .446 1 1s-.446 1-1 1h-1.077c-.554 0-1 .446-1 1s.446 1 1 1H503.4a16 16 0 0 0 .523-2h-3.703c-.554 0-1-.446-1-1s.446-1 1-1h3.943a16 16 0 0 0 .051-1 16 16 0 0 0-.037-1h-31.912zm.244 4a16 16 0 0 0 2.496 6h1.344c.554 0 1-.446 1-1s-.446-1-1-1h-.77c-.553 0-1-.446-1-1s.447-1 1-1h.655c.554 0 1-.446 1-1s-.446-1-1-1h-3.725zm14.446 4c-.554 0-1 .446-1 1s.446 1 1 1h1c.554 0 1 .446 1 1s-.446 1-1 1h-2c-.554 0-1 .446-1 1s.446 1 1 1h7.27c.553 0 1-.446 1-1s-.447-1-1-1h-.77c-.554 0-1-.446-1-1s.446-1 1-1h1.77c.553 0 1-.446 1-1s-.447-1-1-1h-7.27zm10.26 0a1 1 0 0 0-1 1 1 1 0 0 0 1 1 1 1 0 0 0 1-1 1 1 0 0 0-1-1zm-14 4a1 1 0 0 0-1 1 1 1 0 0 0 1 1 1 1 0 0 0 1-1 1 1 0 0 0-1-1z" overflow="visible"></path>
    <path fill="#fff" d="m496.336 912.03-.62-2.38-2.38-.62 2.38-.62.62-2.38.62 2.38 2.38.62-2.38.62zM471.211 921.142l-.413-1.587-1.587-.413 1.587-.413.413-1.587.414 1.587 1.586.413-1.586.413zM468.085 949.026l-.568-2.181-2.182-.569 2.182-.568.568-2.182.568 2.182 2.182.568-2.182.569zM505.834 923.649l-.516-1.983-1.984-.517 1.984-.517.516-1.983.517 1.983 1.983.517-1.983.517zM472.716 915.147l-.31-1.19-1.19-.31 1.19-.31.31-1.19.31 1.19 1.19.31-1.19.31zM509.336 953.016l-.388-1.488-1.487-.387 1.487-.388.388-1.487.387 1.487 1.488.388-1.488.387z" overflow="visible"></path>
  </g>
</svg>
